<?xml version="1.0" encoding="UTF-8"?>
<svg id="Capa_2" data-name="Capa 2" xmlns="http://www.w3.org/2000/svg" viewBox="0 0 126.49 126.49">
  <defs>
    <style>
      .cls-1 {
        fill: #fff;
      }

      .cls-2 {
        fill: #6d28d9;
      }
    </style>
  </defs>
  <g id="Capa_1-2" data-name="Capa 1">
    <g>
      <circle class="cls-2" cx="63.25" cy="63.25" r="63.25"/>
      <g>
        <path class="cls-1" d="M31.58,88.96c0-6.33.88-10.25.88-15.98,0-3.27-2.47-6.55-12.4-6.67v-6.13c9.93-.12,12.4-3.4,12.4-6.67,0-5.51-.88-9.88-.88-15.98,0-9.29,5.18-12.12,16.34-12.12h6.13v5.52h-4.09c-8.14,0-9.91,1.77-9.91,7.07,0,4.82.46,9.79.46,15.12,0,6.2-2.23,8.89-8.43,9.95v.35c6.2,1.06,8.43,3.74,8.43,9.95,0,5.66-.46,10.07-.46,15.12,0,5.3,1.77,7.07,9.91,7.07h4.09v5.52h-6.13c-11.16,0-16.34-2.83-16.34-12.12Z"/>
        <path class="cls-1" d="M70.32,90.09h-10.08v-53.75h21.23c5.82,0,10.12,1.22,12.9,3.67,2.78,2.45,4.17,6.07,4.17,10.87v4.51c0,3.99-.93,7.19-2.79,9.59-1.86,2.4-4.65,3.96-8.36,4.68l12.43,20.43h-10.82l-12.03-19.75h-6.65v19.75ZM70.32,62.27h10.08c3.09,0,5.26-.53,6.52-1.58,1.25-1.05,1.88-2.9,1.88-5.54v-3.9c0-2.51-.63-4.28-1.88-5.31-1.25-1.03-3.43-1.55-6.52-1.55h-10.08v17.87Z"/>
      </g>
    </g>
  </g>
</svg>