<svg width="348" height="95" viewBox="0 0 348 95" fill="none" xmlns="http://www.w3.org/2000/svg">
<path d="M1.66002 75.0134H4.01002L6.13002 81.4634L6.87002 83.9034H6.96002L7.67002 81.4634L9.81003 75.0134H12.16V90.1134H10.32V82.5634C10.32 81.0934 10.55 78.5134 10.64 77.2234H10.57L9.72003 80.1734L7.56002 86.1134H6.18002L4.06002 80.1734L3.18002 77.2234H3.13002C3.27002 78.5134 3.45002 81.0934 3.45002 82.5634V90.1134H1.65002V75.0134H1.66002Z" fill="#2D2D2D"/>
<path d="M15.38 84.5033C15.38 80.8633 18.1 78.6533 21.09 78.6533C24.31 78.6533 26.2 80.7533 26.2 83.9033C26.2 84.3433 26.15 84.7533 26.11 85.0533H16.65V83.5833H24.99L24.51 84.1133C24.51 81.4633 23.2 80.1533 21.15 80.1533C19.1 80.1533 17.28 81.7233 17.28 84.5033C17.28 87.2833 19.17 88.8833 21.66 88.8833C23 88.8833 24.05 88.4633 25.07 87.8233L25.76 89.0633C24.65 89.8033 23.23 90.4033 21.43 90.4033C18.07 90.4033 15.4 88.2433 15.4 84.5133L15.38 84.5033Z" fill="#2D2D2D"/>
<path d="M28.9601 78.9333H30.4801L30.6401 80.4033H30.6901C31.2701 79.3633 31.9601 78.6533 33.2501 78.6533C34.3601 78.6533 35.0501 79.2933 35.3701 80.5833C36.0101 79.3833 36.7101 78.6533 37.9901 78.6533C39.5601 78.6533 40.4801 79.8733 40.4801 82.1033V90.1133H38.5901V82.2333C38.5901 80.9433 38.2201 80.2733 37.3901 80.2733C36.6101 80.2733 36.1901 80.8533 35.5901 82.0033V90.1033H33.8401V82.2233C33.8401 80.9333 33.5201 80.2633 32.6901 80.2633C31.9101 80.2633 31.4001 80.8433 30.8501 81.9933V90.0933H28.9601V78.9033V78.9333Z" fill="#2D2D2D"/>
<path d="M45.36 88.8734H45.29L45.11 90.1134H43.59V73.7234H45.5V78.1934L45.41 80.3534H45.48C46.49 79.3134 47.92 78.6534 49.23 78.6534C52.25 78.6534 53.88 80.8834 53.88 84.3434C53.88 88.1634 51.49 90.4034 48.84 90.4034C47.74 90.4034 46.4 89.8234 45.36 88.8834V88.8734ZM51.92 84.3634C51.92 81.9034 51 80.2634 48.77 80.2634C47.78 80.2634 46.63 80.7734 45.5 81.9234V87.4934C46.54 88.4334 47.71 88.7834 48.52 88.7834C50.45 88.7834 51.93 87.1234 51.93 84.3634H51.92Z" fill="#2D2D2D"/>
<path d="M56.8201 84.5033C56.8201 80.8633 59.5401 78.6533 62.5301 78.6533C65.7501 78.6533 67.6401 80.7533 67.6401 83.9033C67.6401 84.3433 67.5901 84.7533 67.5501 85.0533H58.0901V83.5833H66.4301L65.9501 84.1133C65.9501 81.4633 64.6401 80.1533 62.5901 80.1533C60.5401 80.1533 58.7201 81.7233 58.7201 84.5033C58.7201 87.2833 60.6101 88.8833 63.1001 88.8833C64.4401 88.8833 65.4901 88.4633 66.5101 87.8233L67.2001 89.0633C66.0901 89.8033 64.6701 90.4033 62.8701 90.4033C59.5101 90.4033 56.8401 88.2433 56.8401 84.5133L56.8201 84.5033Z" fill="#2D2D2D"/>
<path d="M72.41 78.9333H74L74.18 81.5833H74.23C75.4 79.7633 77.15 78.6633 79.23 78.6633C80.06 78.6633 80.75 78.7833 81.44 79.1233L81 80.7533C80.22 80.5033 79.8 80.3833 78.93 80.3833C77.25 80.3833 75.66 81.2333 74.33 83.5833V90.1233H72.42V78.9333H72.41Z" fill="#2D2D2D"/>
<path d="M87.14 84.5433C87.14 80.7933 89.72 78.6533 92.67 78.6533C95.62 78.6533 98.2 80.7933 98.2 84.5433C98.2 88.2933 95.62 90.3933 92.67 90.3933C89.72 90.3933 87.14 88.2533 87.14 84.5433ZM96.24 84.5433C96.24 81.9633 94.81 80.2333 92.67 80.2333C90.53 80.2333 89.1 81.9633 89.1 84.5433C89.1 87.1233 90.53 88.8033 92.67 88.8033C94.81 88.8033 96.24 87.1033 96.24 84.5433Z" fill="#2D2D2D"/>
<path d="M99.6801 79.0434L102.93 78.9234H109.45V80.4634H99.6901V79.0334L99.6801 79.0434ZM102.88 77.9834C102.88 75.2634 104.31 73.4434 107.39 73.4434C108.5 73.4434 109.55 73.6534 110.61 74.0934L110.17 75.5234C109.25 75.1334 108.54 74.9934 107.57 74.9934C105.57 74.9934 104.76 76.1234 104.76 77.9134V90.1134H102.87V77.9834H102.88Z" fill="#2D2D2D"/>
<path d="M114.62 80.1933C114.62 79.2633 115.29 78.6033 116.13 78.6033C116.97 78.6033 117.64 79.2533 117.64 80.1933C117.64 81.1333 116.97 81.7833 116.13 81.7833C115.29 81.7833 114.62 81.1433 114.62 80.1933ZM114.62 87.2233C114.62 86.2933 115.29 85.6333 116.13 85.6333C116.97 85.6333 117.64 86.2833 117.64 87.2233C117.64 88.1633 116.97 88.8133 116.13 88.8133C115.29 88.8133 114.62 88.1733 114.62 87.2233Z" fill="#2D2D2D"/>
<path d="M124.18 75.0134H128.9C131.96 75.0134 134.2 76.1234 134.2 79.2734C134.2 82.4234 131.97 83.7434 128.9 83.7434H126.14V90.1234H124.18V75.0234V75.0134ZM128.62 82.1734C130.97 82.1734 132.26 81.2034 132.26 79.2734C132.26 77.3434 130.97 76.5834 128.62 76.5834H126.13V82.1834H128.62V82.1734ZM130.03 82.2034L134.63 90.1234H132.44L128.5 83.2134L130.02 82.2034H130.03Z" fill="#2D2D2D"/>
<path d="M138.82 84.5433C138.82 80.7933 141.4 78.6533 144.35 78.6533C147.3 78.6533 149.88 80.7933 149.88 84.5433C149.88 88.2933 147.3 90.3933 144.35 90.3933C141.4 90.3933 138.82 88.2533 138.82 84.5433ZM147.92 84.5433C147.92 81.9633 146.49 80.2333 144.35 80.2333C142.21 80.2333 140.78 81.9633 140.78 84.5433C140.78 87.1233 142.21 88.8033 144.35 88.8033C146.49 88.8033 147.92 87.1033 147.92 84.5433Z" fill="#2D2D2D"/>
<path d="M154.61 88.6433L155.49 87.3733C156.78 88.2933 158.3 88.8933 160.35 88.8933C162.24 88.8933 163.16 88.1133 163.16 87.1633C163.16 86.3133 162.72 85.7133 159.68 85.0933C156.76 84.4933 155.31 83.5033 155.31 81.8233C155.31 80.0233 156.9 78.6433 159.96 78.6433C161.66 78.6433 163.37 79.3133 164.47 80.0733L163.55 81.2933C162.51 80.5833 161.22 80.1233 159.8 80.1233C157.91 80.1233 157.22 80.8833 157.22 81.7333C157.22 82.7033 158.19 83.1133 160.49 83.5933C164.2 84.4033 165.09 85.3233 165.09 87.0433C165.09 88.8633 163.32 90.3833 160.12 90.3833C157.93 90.3833 155.98 89.5733 154.62 88.6333L154.61 88.6433Z" fill="#2D2D2D"/>
<path d="M170.52 75.0134H174.25C178.79 75.0134 181.25 77.7034 181.25 82.4934C181.25 87.2834 178.79 90.1134 174.34 90.1134H170.52V75.0134ZM174.12 88.5334C177.55 88.5334 179.25 86.3234 179.25 82.5034C179.25 78.6834 177.55 76.6134 174.12 76.6134H172.46V88.5434H174.12V88.5334Z" fill="#2D2D2D"/>
<path d="M185.63 84.5033C185.63 80.8633 188.35 78.6533 191.34 78.6533C194.56 78.6533 196.45 80.7533 196.45 83.9033C196.45 84.3433 196.4 84.7533 196.36 85.0533H186.9V83.5833H195.24L194.76 84.1133C194.76 81.4633 193.45 80.1533 191.4 80.1533C189.35 80.1533 187.53 81.7233 187.53 84.5033C187.53 87.2833 189.42 88.8833 191.91 88.8833C193.25 88.8833 194.3 88.4633 195.32 87.8233L196.01 89.0633C194.9 89.8033 193.48 90.4033 191.68 90.4033C188.32 90.4033 185.65 88.2433 185.65 84.5133L185.63 84.5033Z" fill="#2D2D2D"/>
<path d="M200.75 78.9333H202.71L205.29 85.2634C205.73 86.3934 206.14 87.4934 206.53 88.5834H206.62C207.01 87.5034 207.38 86.3934 207.84 85.2634L210.42 78.9333H212.26L207.61 90.1234H205.47L200.75 78.9333Z" fill="#2D2D2D"/>
<path d="M216.36 82.5634C216.36 77.6834 219.15 74.7334 223.06 74.7334C225.06 74.7334 226.38 75.6734 227.23 76.5734L226.13 77.7934C225.42 77.0334 224.52 76.4334 223.07 76.4334C220.24 76.4334 218.4 78.7634 218.4 82.5134C218.4 86.2634 220.08 88.6834 223.03 88.6834C224.09 88.6834 225.08 88.3634 225.63 87.8034V83.8634H222.64V82.2734H227.43V88.6334C226.49 89.6034 224.87 90.3834 222.92 90.3834C219.12 90.3834 216.38 87.4834 216.38 82.5534L216.36 82.5634Z" fill="#2D2D2D"/>
<path d="M234.02 78.9333H235.61L235.79 81.5833H235.84C237.01 79.7633 238.76 78.6633 240.84 78.6633C241.67 78.6633 242.36 78.7833 243.05 79.1233L242.61 80.7533C241.83 80.5033 241.41 80.3833 240.54 80.3833C238.86 80.3833 237.27 81.2333 235.94 83.5833V90.1233H234.03V78.9333H234.02Z" fill="#2D2D2D"/>
<path d="M247.61 84.5433C247.61 80.7933 250.19 78.6533 253.14 78.6533C256.09 78.6533 258.67 80.7933 258.67 84.5433C258.67 88.2933 256.09 90.3933 253.14 90.3933C250.19 90.3933 247.61 88.2533 247.61 84.5433ZM256.7 84.5433C256.7 81.9633 255.27 80.2333 253.13 80.2333C250.99 80.2333 249.56 81.9633 249.56 84.5433C249.56 87.1233 250.99 88.8033 253.13 88.8033C255.27 88.8033 256.7 87.1033 256.7 84.5433Z" fill="#2D2D2D"/>
<path d="M263.54 85.8833V78.9333H265.45V85.6333C265.45 87.7333 266.19 88.7433 268.03 88.7433C269.32 88.7433 270.26 88.1434 271.51 86.6934V78.9333H273.42V90.1234H271.83L271.67 88.1634H271.58C270.45 89.4734 269.14 90.3933 267.41 90.3933C264.76 90.3933 263.54 88.8233 263.54 85.8833Z" fill="#2D2D2D"/>
<path d="M279.45 78.9333H281.02L281.18 80.3633H281.25C282.29 79.3733 283.76 78.6633 285.12 78.6633C288.14 78.6633 289.75 80.8933 289.75 84.3733C289.75 88.1733 287.36 90.4033 284.66 90.4033C283.62 90.4033 282.33 89.8733 281.32 88.9533H281.27L281.36 91.0733V94.8533H279.45V78.9433V78.9333ZM287.78 84.3633C287.78 81.9033 286.86 80.2633 284.63 80.2633C283.64 80.2633 282.49 80.7733 281.36 81.9233V87.4933C282.4 88.4333 283.57 88.7833 284.33 88.7833C286.31 88.7833 287.78 87.1233 287.78 84.3633Z" fill="#2D2D2D"/>
<path d="M87.77 9.00325C87.77 6.84325 89.37 5.08325 91.61 5.08325C93.85 5.08325 95.51 6.84325 95.51 9.00325V23.9333C97.75 20.7233 100.75 17.9133 106.06 17.9133C113.73 17.9133 118.08 23.0833 118.08 31.1333V49.5933C118.08 51.8833 116.48 53.5133 114.24 53.5133C112 53.5133 110.34 51.8733 110.34 49.5933V33.5533C110.34 28.1133 107.72 25.1033 103.11 25.1033C98.5 25.1033 95.51 28.2433 95.51 33.6833V49.5933C95.51 51.8833 93.85 53.5133 91.61 53.5133C89.5 53.5133 87.77 51.8733 87.77 49.5933V9.00325Z" fill="#4044EE"/>
<path d="M122.99 36.1033V35.9733C122.99 26.0833 130.66 17.9033 141.02 17.9033C151.38 17.9033 158.98 25.9533 158.98 35.8433V35.9733C158.98 45.7333 151.31 53.9733 140.89 53.9733C130.47 53.9733 122.99 45.9233 122.99 36.1033ZM151.25 36.1033V35.9733C151.25 29.8833 146.97 24.8433 140.89 24.8433C134.81 24.8433 130.72 29.8133 130.72 35.8433V35.9733C130.72 41.9933 135.06 47.0333 141.01 47.0333C147.34 47.0333 151.24 42.0633 151.24 36.0933L151.25 36.1033Z" fill="#4044EE"/>
<path d="M162.44 36.1033V35.9733C162.44 26.0833 170.11 17.9033 180.47 17.9033C190.83 17.9033 198.43 25.9533 198.43 35.8433V35.9733C198.43 45.7333 190.76 53.9733 180.34 53.9733C169.92 53.9733 162.44 45.9233 162.44 36.1033ZM190.69 36.1033V35.9733C190.69 29.8833 186.41 24.8433 180.33 24.8433C174.25 24.8433 170.16 29.8133 170.16 35.8433V35.9733C170.16 41.9933 174.5 47.0333 180.45 47.0333C186.78 47.0333 190.68 42.0633 190.68 36.0933L190.69 36.1033Z" fill="#4044EE"/>
<path d="M203.73 22.2233C203.73 19.9333 205.33 18.2333 207.57 18.2333C209.81 18.2333 211.47 19.9333 211.47 22.2233V23.8633C213.65 20.7833 216.59 17.9133 221.76 17.9133C226.62 17.9133 230.07 20.3433 231.86 24.0033C234.61 20.3333 238.13 17.9133 243.24 17.9133C250.66 17.9133 255.07 22.6933 255.07 31.1333V49.5933C255.07 51.8833 253.47 53.5133 251.23 53.5133C248.99 53.5133 247.33 51.8733 247.33 49.5933V33.5533C247.33 28.0533 244.83 25.1033 240.49 25.1033C236.15 25.1033 233.26 28.1133 233.26 33.6833V49.5933C233.26 51.8833 231.54 53.5133 229.42 53.5133C227.18 53.5133 225.52 51.8733 225.52 49.5933V33.4833C225.52 28.0533 223.03 25.1033 218.68 25.1033C214.33 25.1033 211.45 28.3733 211.45 33.6833V49.5933C211.45 51.8833 209.79 53.5133 207.55 53.5133C205.44 53.5133 203.71 51.8733 203.71 49.5933V22.2333L203.73 22.2233Z" fill="#4044EE"/>
<path d="M261.78 9.32338C261.78 6.96338 263.69 5.46338 266.19 5.46338C268.69 5.46338 270.6 6.97338 270.6 9.32338V9.72338C270.6 12.0834 268.69 13.6434 266.19 13.6434C263.69 13.6434 261.78 12.0734 261.78 9.72338V9.32338ZM262.35 22.2234C262.35 19.9334 263.95 18.2334 266.19 18.2334C268.43 18.2334 270.09 19.9334 270.09 22.2234V49.5834C270.09 51.8734 268.43 53.5034 266.19 53.5034C264.08 53.5034 262.35 51.8634 262.35 49.5834V22.2234Z" fill="#4044EE"/>
<path d="M277.63 22.2233C277.63 19.9333 279.23 18.2333 281.47 18.2333C283.71 18.2333 285.37 19.9333 285.37 22.2233V23.9233C287.61 20.7133 290.61 17.9033 295.92 17.9033C303.59 17.9033 307.94 23.0733 307.94 31.1233V49.5833C307.94 51.8733 306.34 53.5033 304.11 53.5033C301.88 53.5033 300.21 51.8633 300.21 49.5833V33.5433C300.21 28.1033 297.59 25.0933 292.98 25.0933C288.37 25.0933 285.37 28.2333 285.37 33.6733V49.5833C285.37 51.8733 283.71 53.5033 281.47 53.5033C279.36 53.5033 277.63 51.8633 277.63 49.5833V22.2233Z" fill="#4044EE"/>
<path d="M347.89 49.5932C347.89 51.8832 346.17 53.5132 344.06 53.5132C341.83 53.5132 340.16 51.8732 340.16 49.5932V47.4332C337.66 51.0332 334.09 53.9132 328.66 53.9132C320.73 53.9132 313 47.4932 313 35.9732V35.8432C313 24.3232 320.6 17.9032 328.66 17.9032C334.16 17.9032 337.8 20.7132 340.16 23.9932V8.99324C340.16 6.70324 341.88 5.07324 344 5.07324C346.23 5.07324 347.9 6.71324 347.9 8.99324V49.5832L347.89 49.5932ZM320.78 35.8432V35.9732C320.78 42.6532 325.19 47.0332 330.49 47.0332C335.79 47.0332 340.27 42.5832 340.27 35.9732V35.8432C340.27 29.1632 335.67 24.7832 330.49 24.7832C325.31 24.7832 320.78 28.9732 320.78 35.8432Z" fill="#4044EE"/>
<path d="M66.02 17.0233C64.5 14.9433 63.27 12.6633 62.51 10.1933C60.67 4.19331 55.13 -0.136693 48.63 0.00330675C40.99 0.183307 34.74 6.90331 34.74 14.7333C34.74 6.91331 28.49 0.183307 20.85 0.00330675C14.35 -0.136693 8.81 4.18331 6.96 10.1933C6.2 12.6633 4.96 14.9533 3.45 17.0233C1.28 19.9833 0 23.6733 0 27.6733C0 31.9333 1.46 35.8333 3.89 38.8933C4.62 39.8133 5 40.9733 4.99 42.1633V42.1833C4.99 47.6933 8.12 52.4533 12.67 54.6933C13.87 55.2833 14.99 56.0533 15.9 57.0333C17.79 59.0633 20.42 60.3733 23.35 60.4933C29.58 60.7633 34.73 55.5433 34.73 49.1533C34.73 55.5333 39.88 60.7533 46.11 60.4933C49.04 60.3733 51.67 59.0633 53.56 57.0333C54.48 56.0433 55.59 55.2833 56.79 54.6933C61.33 52.4533 64.47 47.6933 64.47 42.1833V42.1633C64.47 40.9733 64.84 39.8133 65.57 38.8933C68 35.8333 69.46 31.9233 69.46 27.6733C69.46 23.6833 68.18 19.9933 66.01 17.0233H66.02ZM23.34 29.1433C20.85 31.6933 16.82 31.6933 14.33 29.1433C11.84 26.5933 11.84 22.4633 14.33 19.9133C16.82 17.3633 20.85 17.3633 23.34 19.9133C25.83 22.4633 25.83 26.5933 23.34 29.1433ZM41.7 34.4233C38.22 35.5433 35.54 38.5233 34.77 42.2233C34 38.5233 31.32 35.5433 27.84 34.4233C27.59 34.3433 27.59 34.0033 27.84 33.9233C31.32 32.8033 34 29.8233 34.77 26.1233C35.54 29.8233 38.22 32.8033 41.7 33.9233C41.95 34.0033 41.95 34.3433 41.7 34.4233ZM55.15 29.2233C52.66 31.7733 48.63 31.7733 46.14 29.2233C43.65 26.6733 43.65 22.5433 46.14 19.9933C48.63 17.4433 52.66 17.4433 55.15 19.9933C57.64 22.5433 57.64 26.6733 55.15 29.2233Z" fill="#4044EE"/>
</svg>
