<?xml version="1.0" encoding="UTF-8"?>
<svg id="Capa_1" xmlns="http://www.w3.org/2000/svg" version="1.1" viewBox="0 0 348 95">
  <!-- Generator: Adobe Illustrator 30.0.0, SVG Export Plug-In . SVG Version: 2.1.1 Build 123)  -->
  <defs>
    <style>
      .st0 {
        fill: #fff;
      }
    </style>
  </defs>
  <path class="st0" d="M1.7,75h2.3l2.1,6.5.7,2.4h0l.7-2.4,2.1-6.5h2.3v15.1h-1.8v-7.6c0-1.5.2-4.1.3-5.3h0l-.8,3-2.2,5.9h-1.4l-2.1-5.9-.9-3h0c.1,1.3.3,3.9.3,5.3v7.6h-1.8v-15.1h0Z"/>
  <path class="st0" d="M15.4,84.5c0-3.6,2.7-5.9,5.7-5.9s5.1,2.1,5.1,5.2,0,.9,0,1.2h-9.5v-1.5h8.3l-.5.5c0-2.6-1.3-4-3.4-4s-3.9,1.6-3.9,4.4,1.9,4.4,4.4,4.4,2.4-.4,3.4-1.1l.7,1.2c-1.1.7-2.5,1.3-4.3,1.3-3.4,0-6-2.2-6-5.9h0Z"/>
  <path class="st0" d="M29,78.9h1.5l.2,1.5h0c.6-1,1.3-1.8,2.6-1.8s1.8.6,2.1,1.9c.6-1.2,1.3-1.9,2.6-1.9s2.5,1.2,2.5,3.5v8h-1.9v-7.9c0-1.3-.4-2-1.2-2s-1.2.6-1.8,1.7v8.1h-1.8v-7.9c0-1.3-.3-2-1.1-2s-1.3.6-1.8,1.7v8.1h-1.9v-11.2h0Z"/>
  <path class="st0" d="M45.4,88.9h0l-.2,1.2h-1.5v-16.4h1.9v6.6c0,0,0,0,0,0,1-1,2.4-1.7,3.8-1.7,3,0,4.7,2.2,4.7,5.7s-2.4,6.1-5,6.1-2.4-.6-3.5-1.5h0ZM51.9,84.4c0-2.5-.9-4.1-3.1-4.1s-2.1.5-3.3,1.7v5.6c1,.9,2.2,1.3,3,1.3,1.9,0,3.4-1.7,3.4-4.4h0Z"/>
  <path class="st0" d="M56.8,84.5c0-3.6,2.7-5.9,5.7-5.9s5.1,2.1,5.1,5.2,0,.9,0,1.2h-9.5v-1.5h8.3l-.5.5c0-2.6-1.3-4-3.4-4s-3.9,1.6-3.9,4.4,1.9,4.4,4.4,4.4,2.4-.4,3.4-1.1l.7,1.2c-1.1.7-2.5,1.3-4.3,1.3-3.4,0-6-2.2-6-5.9h0Z"/>
  <path class="st0" d="M72.4,78.9h1.6l.2,2.7h0c1.2-1.8,2.9-2.9,5-2.9s1.5.1,2.2.5l-.4,1.6c-.8-.2-1.2-.4-2.1-.4-1.7,0-3.3.8-4.6,3.2v6.5h-1.9v-11.2h0Z"/>
  <path class="st0" d="M87.1,84.5c0-3.8,2.6-5.9,5.5-5.9s5.5,2.1,5.5,5.9-2.6,5.9-5.5,5.9-5.5-2.1-5.5-5.9ZM96.2,84.5c0-2.6-1.4-4.3-3.6-4.3s-3.6,1.7-3.6,4.3,1.4,4.3,3.6,4.3,3.6-1.7,3.6-4.3Z"/>
  <path class="st0" d="M99.7,79h3.2c0-.1,6.5-.1,6.5-.1v1.5h-9.8v-1.4h0ZM102.9,78c0-2.7,1.4-4.5,4.5-4.5s2.2.2,3.2.7l-.4,1.4c-.9-.4-1.6-.5-2.6-.5-2,0-2.8,1.1-2.8,2.9v12.2h-1.9v-12.1h0Z"/>
  <path class="st0" d="M114.6,80.2c0-.9.7-1.6,1.5-1.6s1.5.7,1.5,1.6-.7,1.6-1.5,1.6-1.5-.6-1.5-1.6ZM114.6,87.2c0-.9.7-1.6,1.5-1.6s1.5.7,1.5,1.6-.7,1.6-1.5,1.6-1.5-.6-1.5-1.6Z"/>
  <path class="st0" d="M124.2,75h4.7c3.1,0,5.3,1.1,5.3,4.3s-2.2,4.5-5.3,4.5h-2.8v6.4h-2v-15.1h0ZM128.6,82.2c2.4,0,3.6-1,3.6-2.9s-1.3-2.7-3.6-2.7h-2.5v5.6h2.5ZM130,82.2l4.6,7.9h-2.2l-3.9-6.9,1.5-1h0Z"/>
  <path class="st0" d="M138.8,84.5c0-3.8,2.6-5.9,5.5-5.9s5.5,2.1,5.5,5.9-2.6,5.9-5.5,5.9-5.5-2.1-5.5-5.9ZM147.9,84.5c0-2.6-1.4-4.3-3.6-4.3s-3.6,1.7-3.6,4.3,1.4,4.3,3.6,4.3,3.6-1.7,3.6-4.3Z"/>
  <path class="st0" d="M154.6,88.6l.9-1.3c1.3.9,2.8,1.5,4.9,1.5s2.8-.8,2.8-1.7-.4-1.4-3.5-2.1c-2.9-.6-4.4-1.6-4.4-3.3s1.6-3.2,4.7-3.2,3.4.7,4.5,1.4l-.9,1.2c-1-.7-2.3-1.2-3.8-1.2s-2.6.8-2.6,1.6,1,1.4,3.3,1.9c3.7.8,4.6,1.7,4.6,3.4s-1.8,3.3-5,3.3-4.1-.8-5.5-1.8h0Z"/>
  <path class="st0" d="M170.5,75h3.7c4.5,0,7,2.7,7,7.5s-2.5,7.6-6.9,7.6h-3.8v-15.1ZM174.1,88.5c3.4,0,5.1-2.2,5.1-6s-1.7-5.9-5.1-5.9h-1.7v11.9h1.7Z"/>
  <path class="st0" d="M185.6,84.5c0-3.6,2.7-5.9,5.7-5.9s5.1,2.1,5.1,5.2,0,.9,0,1.2h-9.5v-1.5h8.3l-.5.5c0-2.6-1.3-4-3.4-4s-3.9,1.6-3.9,4.4,1.9,4.4,4.4,4.4,2.4-.4,3.4-1.1l.7,1.2c-1.1.7-2.5,1.3-4.3,1.3-3.4,0-6-2.2-6-5.9h0Z"/>
  <path class="st0" d="M200.8,78.9h2l2.6,6.3c.4,1.1.9,2.2,1.2,3.3h0c.4-1.1.8-2.2,1.2-3.3l2.6-6.3h1.8l-4.6,11.2h-2.1l-4.7-11.2Z"/>
  <path class="st0" d="M216.4,82.6c0-4.9,2.8-7.8,6.7-7.8s3.3.9,4.2,1.8l-1.1,1.2c-.7-.8-1.6-1.4-3.1-1.4-2.8,0-4.7,2.3-4.7,6.1s1.7,6.2,4.6,6.2,2.1-.3,2.6-.9v-3.9h-3v-1.6h4.8v6.4c-.9,1-2.6,1.8-4.5,1.8-3.8,0-6.5-2.9-6.5-7.8h0Z"/>
  <path class="st0" d="M234,78.9h1.6l.2,2.7h0c1.2-1.8,2.9-2.9,5-2.9s1.5.1,2.2.5l-.4,1.6c-.8-.2-1.2-.4-2.1-.4-1.7,0-3.3.8-4.6,3.2v6.5h-1.9v-11.2h0Z"/>
  <path class="st0" d="M247.6,84.5c0-3.8,2.6-5.9,5.5-5.9s5.5,2.1,5.5,5.9-2.6,5.9-5.5,5.9-5.5-2.1-5.5-5.9ZM256.7,84.5c0-2.6-1.4-4.3-3.6-4.3s-3.6,1.7-3.6,4.3,1.4,4.3,3.6,4.3,3.6-1.7,3.6-4.3Z"/>
  <path class="st0" d="M263.5,85.9v-7h1.9v6.7c0,2.1.7,3.1,2.6,3.1s2.2-.6,3.5-2v-7.8h1.9v11.2h-1.6l-.2-2h0c-1.1,1.3-2.4,2.2-4.2,2.2-2.6,0-3.9-1.6-3.9-4.5Z"/>
  <path class="st0" d="M279.5,78.9h1.6l.2,1.4h0c1-1,2.5-1.7,3.9-1.7,3,0,4.6,2.2,4.6,5.7s-2.4,6-5.1,6-2.3-.5-3.3-1.4h0v2.1c0,0,0,3.8,0,3.8h-1.9v-15.9h0ZM287.8,84.4c0-2.5-.9-4.1-3.1-4.1s-2.1.5-3.3,1.7v5.6c1,.9,2.2,1.3,3,1.3,2,0,3.5-1.7,3.5-4.4Z"/>
  <path class="st0" d="M87.8,9c0-2.2,1.6-3.9,3.8-3.9s3.9,1.8,3.9,3.9v14.9c2.2-3.2,5.2-6,10.5-6,7.7,0,12,5.2,12,13.2v18.5c0,2.3-1.6,3.9-3.8,3.9s-3.9-1.6-3.9-3.9v-16c0-5.4-2.6-8.4-7.2-8.4s-7.6,3.1-7.6,8.6v15.9c0,2.3-1.7,3.9-3.9,3.9s-3.8-1.6-3.8-3.9V9Z"/>
  <path class="st0" d="M123,36.1h0c0-10,7.7-18.2,18-18.2s18,8.1,18,17.9h0c0,9.9-7.7,18.1-18.1,18.1s-17.9-8-17.9-17.9ZM151.2,36.1h0c0-6.2-4.3-11.3-10.4-11.3s-10.2,5-10.2,11h0c0,6.2,4.3,11.2,10.3,11.2s10.2-5,10.2-10.9h0Z"/>
  <path class="st0" d="M162.4,36.1h0c0-10,7.7-18.2,18-18.2s18,8.1,18,17.9h0c0,9.9-7.7,18.1-18.1,18.1s-17.9-8-17.9-17.9ZM190.7,36.1h0c0-6.2-4.3-11.3-10.4-11.3s-10.2,5-10.2,11h0c0,6.2,4.3,11.2,10.3,11.2s10.2-5,10.2-10.9h0Z"/>
  <path class="st0" d="M203.7,22.2c0-2.3,1.6-4,3.8-4s3.9,1.7,3.9,4v1.6c2.2-3.1,5.1-6,10.3-6s8.3,2.4,10.1,6.1c2.8-3.7,6.3-6.1,11.4-6.1,7.4,0,11.8,4.8,11.8,13.2v18.5c0,2.3-1.6,3.9-3.8,3.9s-3.9-1.6-3.9-3.9v-16c0-5.5-2.5-8.4-6.8-8.4s-7.2,3-7.2,8.6v15.9c0,2.3-1.7,3.9-3.8,3.9s-3.9-1.6-3.9-3.9v-16.1c0-5.4-2.5-8.4-6.8-8.4s-7.2,3.3-7.2,8.6v15.9c0,2.3-1.7,3.9-3.9,3.9s-3.8-1.6-3.8-3.9v-27.4h0Z"/>
  <path class="st0" d="M261.8,9.3c0-2.4,1.9-3.9,4.4-3.9s4.4,1.5,4.4,3.9v.4c0,2.4-1.9,3.9-4.4,3.9s-4.4-1.6-4.4-3.9v-.4ZM262.4,22.2c0-2.3,1.6-4,3.8-4s3.9,1.7,3.9,4v27.4c0,2.3-1.7,3.9-3.9,3.9s-3.8-1.6-3.8-3.9v-27.4Z"/>
  <path class="st0" d="M277.6,22.2c0-2.3,1.6-4,3.8-4s3.9,1.7,3.9,4v1.7c2.2-3.2,5.2-6,10.6-6,7.7,0,12,5.2,12,13.2v18.5c0,2.3-1.6,3.9-3.8,3.9s-3.9-1.6-3.9-3.9v-16c0-5.4-2.6-8.5-7.2-8.5s-7.6,3.1-7.6,8.6v15.9c0,2.3-1.7,3.9-3.9,3.9s-3.8-1.6-3.8-3.9v-27.4Z"/>
  <path class="st0" d="M347.9,49.6c0,2.3-1.7,3.9-3.8,3.9s-3.9-1.6-3.9-3.9v-2.2c-2.5,3.6-6.1,6.5-11.5,6.5-7.9,0-15.7-6.4-15.7-17.9h0c0-11.7,7.6-18.1,15.7-18.1s9.1,2.8,11.5,6.1v-15c0-2.3,1.7-3.9,3.8-3.9s3.9,1.6,3.9,3.9v40.6h0ZM320.8,35.8h0c0,6.8,4.4,11.2,9.7,11.2s9.8-4.5,9.8-11.1h0c0-6.8-4.6-11.2-9.8-11.2s-9.7,4.2-9.7,11.1Z"/>
  <path class="st0" d="M66,17c-1.5-2.1-2.7-4.4-3.5-6.8C60.7,4.2,55.1-.1,48.6,0c-7.6.2-13.9,6.9-13.9,14.7C34.7,6.9,28.5.2,20.9,0c-6.5-.1-12,4.2-13.9,10.2-.8,2.5-2,4.8-3.5,6.8-2.2,3-3.5,6.6-3.5,10.6s1.5,8.2,3.9,11.2c.7.9,1.1,2.1,1.1,3.3h0c0,5.5,3.1,10.3,7.7,12.5,1.2.6,2.3,1.4,3.2,2.3,1.9,2,4.5,3.3,7.5,3.5,6.2.3,11.4-5,11.4-11.3,0,6.4,5.2,11.6,11.4,11.3,2.9-.1,5.6-1.4,7.5-3.5.9-1,2-1.8,3.2-2.3,4.5-2.2,7.7-7,7.7-12.5h0c0-1.2.4-2.4,1.1-3.3,2.4-3.1,3.9-7,3.9-11.2s-1.3-7.7-3.4-10.6h0ZM23.3,29.1c-2.5,2.6-6.5,2.6-9,0-2.5-2.5-2.5-6.7,0-9.2,2.5-2.5,6.5-2.5,9,0,2.5,2.6,2.5,6.7,0,9.2ZM41.7,34.4c-3.5,1.1-6.2,4.1-6.9,7.8-.8-3.7-3.5-6.7-6.9-7.8-.2,0-.2-.4,0-.5,3.5-1.1,6.2-4.1,6.9-7.8.8,3.7,3.5,6.7,6.9,7.8.2,0,.2.4,0,.5ZM55.2,29.2c-2.5,2.5-6.5,2.5-9,0-2.5-2.6-2.5-6.7,0-9.2,2.5-2.5,6.5-2.5,9,0,2.5,2.6,2.5,6.7,0,9.2Z"/>
</svg>