<svg width="302" height="99" viewBox="0 0 302 99" fill="none" xmlns="http://www.w3.org/2000/svg">
<g clip-path="url(#clip0_16_2)">
<path d="M11.0654 60.5564C11.0654 54.5293 11.9098 50.7905 11.9098 45.3287C11.9098 42.2097 9.53467 39.0838 0 38.9748V33.1385C9.54154 33.0227 11.9098 29.8968 11.9098 26.7846C11.9098 21.5339 11.0654 17.3728 11.0654 11.5569C11.0654 2.70365 16.049 0 26.7644 0H32.654V5.26429H28.7276C20.9159 5.26429 19.2066 6.95322 19.2066 11.9996C19.2066 16.5965 19.6528 21.3296 19.6528 26.4032C19.6528 32.3144 17.5111 34.8751 11.5597 35.883V36.2167C17.518 37.2246 19.6528 39.7852 19.6528 45.6965C19.6528 51.0902 19.2066 55.2989 19.2066 60.1001C19.2066 65.1465 20.909 66.8354 28.7276 66.8354H32.654V72.0997H26.7644C16.0421 72.0997 11.0654 69.4028 11.0654 60.5496V60.5564Z" fill="#6D28D9"/>
<path d="M48.2706 61.6324H38.5918V10.4128H58.9859C64.5804 10.4128 68.7059 11.5774 71.3762 13.9064C74.0396 16.2355 75.3782 19.6883 75.3782 24.2648V28.562C75.3782 32.3689 74.4858 35.4131 72.701 37.7013C70.9163 39.9895 68.2392 41.4742 64.6697 42.162L76.6069 61.6256H66.2142L54.6613 42.8022H48.2706V61.6256V61.6324ZM48.2706 35.1271H57.9494C60.9148 35.1271 63.0016 34.6231 64.2098 33.622C65.411 32.6209 66.0151 30.8571 66.0151 28.3373V24.6257C66.0151 22.2353 65.411 20.5532 64.2098 19.5657C63.0016 18.5851 60.9217 18.0947 57.9494 18.0947H48.2706V35.1271Z" fill="#232323"/>
<path d="M101.511 62.2725C95.484 62.2725 90.9123 60.7675 87.7959 57.7574C84.6794 54.7473 83.1212 50.45 83.1212 44.8588V27.4451C83.1212 21.8131 84.6932 17.4546 87.8302 14.3832C90.9672 11.3118 95.5527 9.77264 101.58 9.77264C107.607 9.77264 112.165 11.3118 115.26 14.3832C118.356 17.4546 119.908 21.8063 119.908 27.4451V44.8588C119.908 50.45 118.349 54.7473 115.226 57.7574C112.11 60.7675 107.538 62.2725 101.511 62.2725ZM101.511 54.5906C104.648 54.5906 106.886 53.8006 108.224 52.2207C109.556 50.6407 110.222 47.9779 110.222 44.2187V28.0853C110.222 24.2443 109.556 21.5134 108.224 19.8926C106.893 18.2718 104.655 17.4614 101.511 17.4614C98.3671 17.4614 96.1842 18.2718 94.8319 19.8926C93.4796 21.5134 92.8 24.2443 92.8 28.0853V44.2187C92.8 47.9779 93.4796 50.6407 94.8319 52.2207C96.1842 53.8006 98.4151 54.5906 101.511 54.5906Z" fill="#232323"/>
<path d="M146.809 62.1432C142.807 62.1432 139.183 61.5779 135.936 60.4474C132.689 59.3169 129.772 57.5803 127.191 55.2308L130.932 48.2503C133.128 50.2117 135.51 51.7372 138.091 52.8268C140.672 53.9164 143.638 54.4613 146.995 54.4613C149.836 54.4613 152.026 53.8551 153.578 52.6361C155.129 51.4171 155.905 49.7894 155.905 47.7396C155.905 45.5603 155.129 43.9599 153.578 42.9384C152.033 41.9168 149.143 40.8476 144.935 39.7376C138.867 38.1985 134.666 36.3325 132.318 34.1328C129.971 31.9331 128.804 28.7868 128.804 24.687C128.804 20.2468 130.321 16.685 133.355 13.995C136.389 11.305 140.59 9.96335 145.972 9.96335C149.329 9.96335 152.61 10.549 155.815 11.7204C159.021 12.8917 161.698 14.5398 163.847 16.6646L160.49 23.3658C158.341 21.5203 156.035 20.1106 153.584 19.1231C151.134 18.1356 148.615 17.6453 146.034 17.6453C143.665 17.6453 141.819 18.1152 140.487 19.0618C139.155 20.0016 138.483 21.5271 138.483 23.6246C138.483 25.5587 139.238 27.0774 140.741 28.1943C142.244 29.3111 145.299 30.4485 149.905 31.6062C155.802 33.0568 159.886 34.9023 162.165 37.1429C164.444 39.3834 165.583 42.6183 165.583 46.8406C165.583 51.7508 163.806 55.5236 160.257 58.1728C156.708 60.822 152.225 62.1432 146.802 62.1432H146.809Z" fill="#232323"/>
<path d="M176.23 61.6324V10.4128H189.719C195.739 10.4128 200.462 12.1086 203.88 15.5C207.299 18.8915 209.008 23.4067 209.008 29.0387V43.2516C209.008 48.8428 207.285 53.3035 203.846 56.6337C200.407 59.9639 195.67 61.6256 189.65 61.6256H176.23V61.6324ZM181.715 56.6337H189.849C194.407 56.6337 197.826 55.3874 200.111 52.8881C202.397 50.3887 203.53 47.2629 203.53 43.5104V28.7868C203.53 25.0752 202.39 21.9153 200.111 19.3138C197.832 16.7123 194.414 15.4115 189.849 15.4115H181.715V56.6405V56.6337Z" fill="#232323"/>
<path d="M221.398 61.6324V10.4128H254.176V15.4047H226.883V31.1567H250.949V36.1486H226.883V56.6337H254.176V61.6256H221.398V61.6324Z" fill="#232323"/>
<path d="M284.832 61.6324H279.601L262.502 10.4196H268.57L282.313 53.5078L295.994 10.4196H301.993L284.832 61.6324Z" fill="#232323"/>
<path d="M102.953 88.4237C102.953 81.6816 106.968 77.7317 112.329 77.7317C115.096 77.7317 116.963 79.0052 118.205 80.2855L116.153 82.5601C115.219 81.6067 114.135 80.9052 112.329 80.9052C109.041 80.9052 106.769 83.7179 106.769 88.3147C106.769 92.9116 108.753 95.8264 112.398 95.8264C113.503 95.8264 114.574 95.4995 115.171 94.9343V90.5008H111.629V87.518H118.507V96.5687C117.176 97.8627 114.849 99 112.178 99C106.934 99 102.953 95.2271 102.953 88.4237Z" fill="#232323"/>
<path d="M129.387 78.1063H136.3C140.59 78.1063 143.926 79.6113 143.926 84.2014C143.926 88.7915 140.59 90.6098 136.3 90.6098H133.087V98.6254H129.387V78.1063ZM135.922 87.695C138.75 87.695 140.295 86.5169 140.295 84.2014C140.295 81.8859 138.757 81.0278 135.922 81.0278H133.087V87.695H135.922ZM138.27 87.4499L144.722 98.6254H140.59L135.6 89.6359L138.27 87.4499Z" fill="#232323"/>
<path d="M153.392 88.2739C153.392 81.525 156.728 77.7317 161.527 77.7317C166.325 77.7317 169.661 81.525 169.661 88.2739C169.661 95.0228 166.325 99 161.527 99C156.728 99 153.392 95.1454 153.392 88.2739ZM165.879 88.2739C165.879 83.568 164.163 80.9052 161.533 80.9052C158.904 80.9052 157.181 83.568 157.181 88.2739C157.181 92.9797 158.898 95.8264 161.533 95.8264C164.169 95.8264 165.879 93.1091 165.879 88.2739Z" fill="#232323"/>
<path d="M179.601 90.7937V78.1063H183.3V91.0661C183.3 94.3895 184.68 95.8264 186.877 95.8264C189.073 95.8264 190.522 94.3895 190.522 91.0661V78.1063H194.071V90.7937C194.071 96.3917 191.414 99 186.877 99C182.339 99 179.601 96.3917 179.601 90.7937Z" fill="#232323"/>
<path d="M205.438 78.1063H212.234C216.765 78.1063 220.121 79.6794 220.121 84.4261C220.121 89.1729 216.696 91.0865 212.234 91.0865H209.118V98.6254H205.438V78.1063ZM211.946 88.1718C215.021 88.1718 216.49 86.9459 216.49 84.4329C216.49 81.92 214.952 81.0278 211.946 81.0278H209.118V88.1718H211.946Z" fill="#232323"/>
</g>
<defs>
<clipPath id="clip0_16_2">
<rect width="302" height="99" fill="white"/>
</clipPath>
</defs>
</svg>
