<?xml version="1.0" encoding="UTF-8"?>
<svg id="Capa_1" xmlns="http://www.w3.org/2000/svg" version="1.1" viewBox="0 0 302 73">
  <!-- Generator: Adobe Illustrator 30.0.0, SVG Export Plug-In . SVG Version: 2.1.1 Build 123)  -->
  <defs>
    <style>
      .st0 {
        fill: #fff;
      }

      .st1 {
        fill: #6d28d9;
      }
    </style>
  </defs>
  <path class="st1" d="M11.1,60.6c0-6,.8-9.8.8-15.2s-2.4-6.2-11.9-6.4v-5.8c9.5-.1,11.9-3.2,11.9-6.4,0-5.3-.8-9.4-.8-15.2C11.1,2.7,16,0,26.8,0h5.9v5.3h-3.9c-7.8,0-9.5,1.7-9.5,6.7s.4,9.3.4,14.4-2.1,8.5-8.1,9.5v.3c6,1,8.1,3.6,8.1,9.5s-.4,9.6-.4,14.4,1.7,6.7,9.5,6.7h3.9v5.3h-5.9c-10.7,0-15.7-2.7-15.7-11.6h0Z"/>
  <path class="st0" d="M48.3,61.6h-9.7V10.4h20.4c5.6,0,9.7,1.2,12.4,3.5,2.7,2.3,4,5.8,4,10.4v4.3c0,3.8-.9,6.9-2.7,9.1-1.8,2.3-4.5,3.8-8,4.5l11.9,19.5h-10.4l-11.6-18.8h-6.4v18.8h0ZM48.3,35.1h9.7c3,0,5.1-.5,6.3-1.5,1.2-1,1.8-2.8,1.8-5.3v-3.7c0-2.4-.6-4.1-1.8-5.1-1.2-1-3.3-1.5-6.3-1.5h-9.7v17Z"/>
  <path class="st0" d="M101.5,62.3c-6,0-10.6-1.5-13.7-4.5-3.1-3-4.7-7.3-4.7-12.9v-17.4c0-5.6,1.6-10,4.7-13.1s7.7-4.6,13.7-4.6,10.6,1.5,13.7,4.6c3.1,3.1,4.6,7.4,4.6,13.1v17.4c0,5.6-1.6,9.9-4.7,12.9-3.1,3-7.7,4.5-13.7,4.5ZM101.5,54.6c3.1,0,5.4-.8,6.7-2.4,1.3-1.6,2-4.2,2-8v-16.1c0-3.8-.7-6.6-2-8.2-1.3-1.6-3.6-2.4-6.7-2.4s-5.3.8-6.7,2.4c-1.4,1.6-2,4.4-2,8.2v16.1c0,3.8.7,6.4,2,8,1.4,1.6,3.6,2.4,6.7,2.4Z"/>
  <path class="st0" d="M146.8,62.1c-4,0-7.6-.6-10.9-1.7-3.2-1.1-6.2-2.9-8.7-5.2l3.7-7c2.2,2,4.6,3.5,7.2,4.6,2.6,1.1,5.5,1.6,8.9,1.6s5-.6,6.6-1.8c1.6-1.2,2.3-2.8,2.3-4.9s-.8-3.8-2.3-4.8c-1.5-1-4.4-2.1-8.6-3.2-6.1-1.5-10.3-3.4-12.6-5.6-2.3-2.2-3.5-5.3-3.5-9.4s1.5-8,4.6-10.7c3-2.7,7.2-4,12.6-4s6.6.6,9.8,1.8c3.2,1.2,5.9,2.8,8,4.9l-3.4,6.7c-2.1-1.8-4.5-3.3-6.9-4.2-2.4-1-5-1.5-7.6-1.5s-4.2.5-5.5,1.4c-1.3.9-2,2.5-2,4.6s.8,3.5,2.3,4.6c1.5,1.1,4.6,2.3,9.2,3.4,5.9,1.5,10,3.3,12.3,5.5,2.3,2.2,3.4,5.5,3.4,9.7s-1.8,8.7-5.3,11.3c-3.5,2.6-8,4-13.5,4h0Z"/>
  <path class="st0" d="M176.2,61.6V10.4h13.5c6,0,10.7,1.7,14.2,5.1,3.4,3.4,5.1,7.9,5.1,13.5v14.2c0,5.6-1.7,10.1-5.2,13.4-3.4,3.3-8.2,5-14.2,5h-13.4ZM181.7,56.6h8.1c4.6,0,8-1.2,10.3-3.7,2.3-2.5,3.4-5.6,3.4-9.4v-14.7c0-3.7-1.1-6.9-3.4-9.5-2.3-2.6-5.7-3.9-10.3-3.9h-8.1v41.2h0Z"/>
  <path class="st0" d="M221.4,61.6V10.4h32.8v5h-27.3v15.8h24.1v5h-24.1v20.5h27.3v5h-32.8Z"/>
  <path class="st0" d="M284.8,61.6h-5.2l-17.1-51.2h6.1l13.7,43.1,13.7-43.1h6l-17.2,51.2Z"/>
</svg>