<?xml version="1.0" encoding="UTF-8"?>
<svg id="Capa_1" xmlns="http://www.w3.org/2000/svg" version="1.1" viewBox="0 0 333 126">
  <!-- Generator: Adobe Illustrator 30.0.0, SVG Export Plug-In . SVG Version: 2.1.1 Build 123)  -->
  <defs>
    <style>
      .st0 {
        fill: #fff;
      }
    </style>
  </defs>
  <path class="st0" d="M26,102.5h2.1l1.9,5.7.7,2.2h0l.6-2.2,1.9-5.7h2.1v13.3h-1.6v-6.7c0-1.3.2-3.6.3-4.7h0l-.8,2.6-1.9,5.2h-1.2l-1.9-5.2-.8-2.6h0c.1,1.1.3,3.4.3,4.7v6.7h-1.6v-13.3h-.1Z"/>
  <path class="st0" d="M38.2,110.9c0-3.2,2.4-5.2,5.1-5.2s4.5,1.9,4.5,4.6,0,.8,0,1h-8.4v-1.3h7.4l-.4.5c0-2.3-1.2-3.5-3-3.5s-3.4,1.4-3.4,3.8,1.7,3.9,3.9,3.9,2.1-.4,3-.9l.6,1.1c-1,.7-2.3,1.2-3.9,1.2-3,0-5.4-1.9-5.4-5.2h0Z"/>
  <path class="st0" d="M50.3,106h1.4v1.3h.2c.5-.9,1.1-1.5,2.3-1.5s1.6.6,1.9,1.7c.6-1.1,1.2-1.7,2.3-1.7s2.2,1.1,2.2,3v7.1h-1.7v-7c0-1.1-.3-1.7-1.1-1.7s-1.1.5-1.6,1.5v7.1h-1.6v-7c0-1.1-.3-1.7-1-1.7s-1.1.5-1.6,1.5v7.1h-1.7v-9.9h0v.2Z"/>
  <path class="st0" d="M64.9,114.7h0l-.2,1.1h-1.4v-14.5h1.7v5.8h0c.9-.9,2.2-1.5,3.3-1.5,2.7,0,4.1,2,4.1,5s-2.1,5.3-4.5,5.3-2.2-.5-3.1-1.3h0ZM70.7,110.8c0-2.2-.8-3.6-2.8-3.6s-1.9.4-2.9,1.5v4.9c.9.8,2,1.1,2.7,1.1,1.7,0,3-1.5,3-3.9h0Z"/>
  <path class="st0" d="M75.1,110.9c0-3.2,2.4-5.2,5.1-5.2s4.5,1.9,4.5,4.6,0,.8,0,1h-8.4v-1.3h7.4l-.4.5c0-2.3-1.2-3.5-3-3.5s-3.4,1.4-3.4,3.8,1.7,3.9,3.9,3.9,2.1-.4,3-.9l.6,1.1c-1,.7-2.3,1.2-3.9,1.2-3,0-5.4-1.9-5.4-5.2h0Z"/>
  <path class="st0" d="M89,106h1.4l.2,2.3h0c1-1.6,2.6-2.6,4.4-2.6s1.4,0,2,.4l-.4,1.4c-.7-.2-1.1-.3-1.8-.3-1.5,0-2.9.8-4.1,2.8v5.8h-1.7v-9.9h0Z"/>
  <path class="st0" d="M102.1,110.9c0-3.3,2.3-5.2,4.9-5.2s4.9,1.9,4.9,5.2-2.3,5.2-4.9,5.2-4.9-1.9-4.9-5.2ZM110.2,110.9c0-2.3-1.3-3.8-3.2-3.8s-3.2,1.5-3.2,3.8,1.3,3.8,3.2,3.8,3.2-1.5,3.2-3.8Z"/>
  <path class="st0" d="M113.2,106.1h2.9c0,0,5.8,0,5.8,0v1.4h-8.7v-1.3h0ZM116.1,105.1c0-2.4,1.3-4,4-4s1.9.2,2.9.6l-.4,1.3c-.8-.3-1.4-.5-2.3-.5-1.8,0-2.5,1-2.5,2.6v10.8h-1.7v-10.7h0Z"/>
  <path class="st0" d="M126.5,107.1c0-.8.6-1.4,1.3-1.4s1.3.6,1.3,1.4-.6,1.4-1.3,1.4-1.3-.6-1.3-1.4ZM126.5,113.3c0-.8.6-1.4,1.3-1.4s1.3.6,1.3,1.4-.6,1.4-1.3,1.4-1.3-.6-1.3-1.4Z"/>
  <path class="st0" d="M135,102.5h4.2c2.7,0,4.7,1,4.7,3.8s-2,3.9-4.7,3.9h-2.5v5.6h-1.7v-13.3h0ZM139,108.8c2.1,0,3.2-.9,3.2-2.6s-1.1-2.4-3.2-2.4h-2.2v4.9h2.2ZM140.2,108.8l4.1,7h-1.9l-3.5-6.1,1.4-.9h-.1Z"/>
  <path class="st0" d="M148.1,110.9c0-3.3,2.3-5.2,4.9-5.2s4.9,1.9,4.9,5.2-2.3,5.2-4.9,5.2-4.9-1.9-4.9-5.2ZM156.2,110.9c0-2.3-1.3-3.8-3.2-3.8s-3.2,1.5-3.2,3.8,1.3,3.8,3.2,3.8,3.2-1.5,3.2-3.8Z"/>
  <path class="st0" d="M162.1,114.5l.8-1.1c1.1.8,2.5,1.3,4.3,1.3s2.5-.7,2.5-1.5-.4-1.3-3.1-1.8c-2.6-.5-3.9-1.4-3.9-2.9s1.4-2.8,4.1-2.8,3,.6,4,1.3l-.8,1.1c-.9-.6-2.1-1-3.3-1s-2.3.7-2.3,1.4.9,1.2,2.9,1.6c3.3.7,4.1,1.5,4.1,3s-1.6,2.9-4.4,2.9-3.7-.7-4.9-1.5h0Z"/>
  <path class="st0" d="M176.3,102.5h3.3c4,0,6.2,2.4,6.2,6.6s-2.2,6.7-6.1,6.7h-3.4s0-13.3,0-13.3ZM179.5,114.4c3.1,0,4.6-1.9,4.6-5.3s-1.5-5.2-4.6-5.2h-1.5v10.5h1.5Z"/>
  <path class="st0" d="M189.7,110.9c0-3.2,2.4-5.2,5.1-5.2s4.5,1.9,4.5,4.6,0,.8,0,1h-8.4v-1.3h7.4l-.4.5c0-2.3-1.2-3.5-3-3.5s-3.4,1.4-3.4,3.8,1.7,3.9,3.9,3.9,2.1-.4,3-.9l.6,1.1c-1,.7-2.3,1.2-3.9,1.2-3,0-5.4-1.9-5.4-5.2h0Z"/>
  <path class="st0" d="M203.2,106h1.7l2.3,5.6c.4,1,.8,2,1.1,2.9h0c.3-1,.7-1.9,1.1-2.9l2.3-5.6h1.6l-4.1,9.9h-1.9l-4.2-9.9h0Z"/>
  <path class="st0" d="M217.1,109.2c0-4.3,2.5-6.9,6-6.9s3,.8,3.7,1.6l-1,1.1c-.6-.7-1.4-1.2-2.7-1.2-2.5,0-4.2,2.1-4.2,5.4s1.5,5.4,4.1,5.4,1.8-.3,2.3-.8v-3.5h-2.7v-1.4h4.3v5.6c-.8.9-2.3,1.5-4,1.5-3.4,0-5.8-2.6-5.8-6.9h0Z"/>
  <path class="st0" d="M232.8,106h1.4l.2,2.3h0c1-1.6,2.6-2.6,4.4-2.6s1.4,0,2,.4l-.4,1.4c-.7-.2-1.1-.3-1.8-.3-1.5,0-2.9.8-4.1,2.8v5.8h-1.7v-9.9h0Z"/>
  <path class="st0" d="M244.9,110.9c0-3.3,2.3-5.2,4.9-5.2s4.9,1.9,4.9,5.2-2.3,5.2-4.9,5.2-4.9-1.9-4.9-5.2ZM253,110.9c0-2.3-1.3-3.8-3.2-3.8s-3.2,1.5-3.2,3.8,1.3,3.8,3.2,3.8,3.2-1.5,3.2-3.8Z"/>
  <path class="st0" d="M259,112.1v-6.1h1.7v5.9c0,1.9.7,2.7,2.3,2.7s2-.5,3.1-1.8v-6.8h1.7v9.9h-1.4v-1.7h-.2c-1,1.2-2.2,2-3.7,2-2.4,0-3.4-1.4-3.4-4h-.1Z"/>
  <path class="st0" d="M273.2,106h1.4v1.3h.2c.9-.9,2.2-1.5,3.4-1.5,2.7,0,4.1,2,4.1,5s-2.1,5.3-4.5,5.3-2.1-.5-3-1.3h0v5.2h-1.7v-14h.1ZM280.6,110.8c0-2.2-.8-3.6-2.8-3.6s-1.9.4-2.9,1.5v4.9c.9.8,2,1.1,2.6,1.1,1.8,0,3.1-1.5,3.1-3.9h0Z"/>
  <path class="st0" d="M77.8,41.1v-11.1c0-.5-.4-1-1-1H27c-.5,0-1,.4-1,1v11.1c0,.5.4,1,1,1h16.4c.5,0,1,.4,1,1v38.7c0,.5.4,1,1,1h13c.5,0,1-.4,1-1v-38.7c0-.5.4-1,1-1h16.5c.5,0,1-.4,1-1h0Z"/>
  <path class="st0" d="M99.6,29h-13c-.5,0-1,.4-1,1v33.5c0,.5.4,1,1,1h13c.5,0,1-.4,1-1V30c0-.5-.4-1-1-1Z"/>
  <path class="st0" d="M99.6,69.5h-13c-.5,0-1,.4-1,1v11.3c0,.5.4,1,1,1h13c.5,0,1-.4,1-1v-11.3c0-.5-.4-1-1-1Z"/>
  <path class="st0" d="M125,81.7v-18.9c0-3.8-.7-10.9-.7-10.9h.2l25.1,30.4c.2.2.5.4.7.4h13c.5,0,1-.4,1-1V30c0-.5-.4-1-1-1h-13c-.5,0-1,.4-1,1v19.1c0,3.1.6,10.3.6,10.3h-.2l-24.8-30c-.2-.2-.5-.4-.7-.4h-13.2c-.5,0-1,.4-1,1v51.8c0,.5.4,1,1,1h13c.5,0,1-.4,1-1h0Z"/>
  <path class="st0" d="M226.4,29h-14.9c-.3,0-.6.2-.8.4l-7.5,11.3c-.7,1.2-4,7.4-4,7.4h-.2s-3-6.2-3.8-7.4l-7.6-11.3c-.2-.3-.5-.4-.8-.4h-14.8c-.8,0-1.2.8-.8,1.5l20.4,31.3c0,.2.2.3.2.5v19.4c0,.5.4,1,1,1h13c.5,0,1-.4,1-1v-19.4c0-.2,0-.4.2-.5l20.5-31.3c.4-.6,0-1.5-.8-1.5h-.3Z"/>
  <path class="st0" d="M233.2,71.3c-1-.6-2.6-.9-4.4-1.1-1.6-.2-2.9-.4-3.6-.7-.8-.4-1-1-1-1.6,0-1.1.9-2.3,3.7-2.3s4.3.6,5.7,1.1l.9-3.2c-1.8-.8-4-1.3-6.7-1.3-4.6,0-7.7,2.4-7.7,5.7s.6,3.2,2.3,4.1c1.1.6,2.6,1,4.5,1.2,1.7.2,3.1.4,3.7.8.7.3,1,.9,1,1.6,0,1.5-1.3,2.7-4.2,2.7s-4.8-.8-6.3-1.5l-.9,3.3c1.9.9,4.4,1.5,7.4,1.5,5.2,0,7.8-2.7,7.8-6.1s-.8-3.3-2.4-4.3h.2Z"/>
  <path class="st0" d="M236.9,66h7v15.3h4v-15.3h7v-3.5h-18v3.5Z"/>
  <path class="st0" d="M270.9,73.7c0,2.7-1.6,4.4-4.8,4.4s-4.8-1.7-4.8-4.4v-11.2h-4v11.3c0,5.3,4,7.8,8.8,7.8s8.8-2.5,8.8-7.8v-11.3h-4v11.2h0Z"/>
  <path class="st0" d="M285.4,62.5h-6v18.8h7.2c6.6,0,10.3-3.1,10.3-9.4s-3.1-9.4-11.4-9.4h-.1ZM286.6,77.8h-3.2v-11.7h2.6c5,0,6.7,2.6,6.7,5.8s-2,5.9-6.1,5.9Z"/>
  <path class="st0" d="M304.1,62.5h-4v18.8h4v-18.8Z"/>
  <path class="st0" d="M317.7,62.2c-5.9,0-10.3,4.2-10.3,9.6s4.4,9.9,10.3,9.9,10.3-4.2,10.3-9.9-4.5-9.6-10.3-9.6ZM317.7,78c-3.4,0-6.1-2.2-6.1-6.2s2.6-6,6.1-6,6.1,2.4,6.1,6-2.6,6.2-6.1,6.2Z"/>
</svg>