<svg width="333" height="126" viewBox="0 0 333 126" fill="none" xmlns="http://www.w3.org/2000/svg">
<g clip-path="url(#clip0_20_517)">
<path d="M26 102.515H28.0912L29.9778 108.205L30.6363 110.357H30.7164L31.3482 108.205L33.2526 102.515H35.3438V115.836H33.7064V109.175C33.7064 107.878 33.9111 105.602 33.9912 104.464H33.9289L33.1725 107.067L31.2503 112.307H30.0223L28.1357 107.067L27.3526 104.464H27.3081C27.4327 105.602 27.5929 107.878 27.5929 109.175V115.836H26V102.515Z" fill="#2D2D2D"/>
<path d="M38.2092 110.878C38.2092 107.667 40.6297 105.717 43.2905 105.717C46.1559 105.717 47.8378 107.57 47.8378 110.349C47.8378 110.737 47.7933 111.099 47.7577 111.363H39.3394V110.066H46.761L46.3339 110.534C46.3339 108.196 45.1681 107.04 43.3439 107.04C41.5196 107.04 39.9 108.425 39.9 110.878C39.9 113.331 41.5819 114.742 43.7977 114.742C44.9901 114.742 45.9245 114.372 46.8322 113.807L47.4462 114.901C46.4585 115.554 45.1948 116.083 43.593 116.083C40.603 116.083 38.227 114.177 38.227 110.887L38.2092 110.878Z" fill="#2D2D2D"/>
<path d="M50.3027 105.964H51.6554L51.7977 107.261H51.8422C52.3584 106.343 52.9724 105.717 54.1203 105.717C55.1081 105.717 55.7221 106.282 56.0069 107.42C56.5764 106.361 57.1993 105.717 58.3384 105.717C59.7355 105.717 60.5542 106.793 60.5542 108.761V115.827H58.8723V108.875C58.8723 107.737 58.5431 107.146 57.8045 107.146C57.1104 107.146 56.7366 107.658 56.2027 108.672V115.818H54.6454V108.867C54.6454 107.728 54.3606 107.137 53.622 107.137C52.9279 107.137 52.4741 107.649 51.9846 108.664V115.81H50.3027V105.938V105.964Z" fill="#2D2D2D"/>
<path d="M64.888 114.742H64.8257L64.6655 115.836H63.3129V101.377H65.0125V105.32L64.9325 107.226H64.9947C65.8935 106.308 67.1661 105.726 68.3318 105.726C71.0193 105.726 72.4698 107.693 72.4698 110.746C72.4698 114.116 70.343 116.092 67.9848 116.092C67.0059 116.092 65.8134 115.58 64.888 114.751V114.742ZM70.7256 110.763C70.7256 108.593 69.9069 107.146 67.9225 107.146C67.0415 107.146 66.0181 107.596 65.0125 108.611V113.525C65.938 114.354 66.9792 114.663 67.7 114.663C69.4175 114.663 70.7345 113.198 70.7345 110.763H70.7256Z" fill="#2D2D2D"/>
<path d="M75.0949 110.878C75.0949 107.667 77.5154 105.717 80.1762 105.717C83.0416 105.717 84.7235 107.57 84.7235 110.349C84.7235 110.737 84.679 111.099 84.6434 111.363H76.2251V110.066H83.6467L83.2196 110.534C83.2196 108.196 82.0538 107.04 80.2295 107.04C78.4053 107.04 76.7857 108.425 76.7857 110.878C76.7857 113.331 78.4676 114.742 80.6834 114.742C81.8758 114.742 82.8102 114.372 83.7179 113.807L84.3319 114.901C83.3441 115.554 82.0805 116.083 80.4787 116.083C77.4887 116.083 75.1127 114.177 75.1127 110.887L75.0949 110.878Z" fill="#2D2D2D"/>
<path d="M88.9593 105.964H90.3742L90.5344 108.302H90.5789C91.62 106.696 93.1773 105.726 95.0283 105.726C95.7669 105.726 96.3809 105.832 96.9949 106.132L96.6034 107.57C95.9093 107.349 95.5355 107.243 94.7613 107.243C93.2663 107.243 91.8514 107.993 90.6679 110.066V115.836H88.9682V105.964H88.9593Z" fill="#2D2D2D"/>
<path d="M102.067 110.922C102.067 107.614 104.363 105.726 106.988 105.726C109.614 105.726 111.909 107.614 111.909 110.922C111.909 114.23 109.614 116.083 106.988 116.083C104.363 116.083 102.067 114.195 102.067 110.922ZM110.165 110.922C110.165 108.646 108.893 107.12 106.988 107.12C105.084 107.12 103.811 108.646 103.811 110.922C103.811 113.198 105.084 114.68 106.988 114.68C108.893 114.68 110.165 113.181 110.165 110.922Z" fill="#2D2D2D"/>
<path d="M113.226 106.07L116.119 105.964H121.921V107.323H113.235V106.061L113.226 106.07ZM116.074 105.135C116.074 102.735 117.347 101.13 120.087 101.13C121.075 101.13 122.01 101.315 122.953 101.703L122.561 102.965C121.743 102.621 121.111 102.497 120.248 102.497C118.468 102.497 117.747 103.494 117.747 105.073V115.836H116.065V105.135H116.074Z" fill="#2D2D2D"/>
<path d="M126.521 107.085C126.521 106.264 127.118 105.682 127.865 105.682C128.613 105.682 129.209 106.255 129.209 107.085C129.209 107.914 128.613 108.487 127.865 108.487C127.118 108.487 126.521 107.923 126.521 107.085ZM126.521 113.278C126.521 112.457 127.118 111.875 127.865 111.875C128.613 111.875 129.209 112.448 129.209 113.278C129.209 114.107 128.613 114.68 127.865 114.68C127.118 114.68 126.521 114.116 126.521 113.278Z" fill="#2D2D2D"/>
<path d="M135.029 102.515H139.229C141.952 102.515 143.945 103.494 143.945 106.273C143.945 109.052 141.961 110.216 139.229 110.216H136.773V115.845H135.029V102.523V102.515ZM138.98 108.831C141.071 108.831 142.219 107.976 142.219 106.273C142.219 104.57 141.071 103.9 138.98 103.9H136.764V108.84H138.98V108.831ZM140.234 108.849L144.328 115.836H142.379L138.873 109.74L140.226 108.849H140.234Z" fill="#2D2D2D"/>
<path d="M148.057 110.922C148.057 107.614 150.352 105.726 152.978 105.726C155.603 105.726 157.899 107.614 157.899 110.922C157.899 114.23 155.603 116.083 152.978 116.083C150.352 116.083 148.057 114.195 148.057 110.922ZM156.154 110.922C156.154 108.646 154.882 107.12 152.978 107.12C151.073 107.12 149.801 108.646 149.801 110.922C149.801 113.198 151.073 114.68 152.978 114.68C154.882 114.68 156.154 113.181 156.154 110.922Z" fill="#2D2D2D"/>
<path d="M162.117 114.539L162.9 113.419C164.048 114.23 165.4 114.76 167.225 114.76C168.907 114.76 169.725 114.072 169.725 113.233C169.725 112.484 169.334 111.954 166.628 111.407C164.03 110.878 162.74 110.005 162.74 108.522C162.74 106.934 164.155 105.717 166.878 105.717C168.39 105.717 169.912 106.308 170.891 106.979L170.072 108.055C169.147 107.429 167.999 107.023 166.735 107.023C165.053 107.023 164.439 107.693 164.439 108.443C164.439 109.299 165.302 109.661 167.349 110.084C170.651 110.799 171.443 111.61 171.443 113.128C171.443 114.733 169.868 116.074 167.02 116.074C165.071 116.074 163.336 115.36 162.126 114.53L162.117 114.539Z" fill="#2D2D2D"/>
<path d="M176.275 102.515H179.594C183.634 102.515 185.823 104.888 185.823 109.114C185.823 113.339 183.634 115.836 179.674 115.836H176.275V102.515ZM179.469 114.433C182.522 114.433 184.035 112.484 184.035 109.114C184.035 105.744 182.522 103.917 179.469 103.917H177.992V114.442H179.469V114.433Z" fill="#2D2D2D"/>
<path d="M189.712 110.878C189.712 107.667 192.132 105.717 194.793 105.717C197.659 105.717 199.341 107.57 199.341 110.349C199.341 110.737 199.296 111.099 199.26 111.363H190.842V110.066H198.264L197.837 110.534C197.837 108.196 196.671 107.04 194.847 107.04C193.022 107.04 191.403 108.425 191.403 110.878C191.403 113.331 193.085 114.742 195.3 114.742C196.493 114.742 197.427 114.372 198.335 113.807L198.949 114.901C197.961 115.554 196.698 116.083 195.096 116.083C192.106 116.083 189.73 114.177 189.73 110.887L189.712 110.878Z" fill="#2D2D2D"/>
<path d="M203.176 105.964H204.92L207.216 111.549C207.608 112.545 207.972 113.516 208.319 114.477H208.4C208.747 113.525 209.076 112.545 209.485 111.549L211.781 105.964H213.419L209.281 115.836H207.376L203.176 105.964Z" fill="#2D2D2D"/>
<path d="M217.067 109.175C217.067 104.87 219.55 102.268 223.029 102.268C224.809 102.268 225.984 103.097 226.74 103.891L225.761 104.967C225.129 104.297 224.328 103.767 223.038 103.767C220.52 103.767 218.882 105.823 218.882 109.131C218.882 112.439 220.377 114.574 223.003 114.574C223.946 114.574 224.827 114.292 225.316 113.798V110.322H222.655V108.919H226.918V114.53C226.082 115.386 224.64 116.074 222.905 116.074C219.523 116.074 217.085 113.516 217.085 109.166L217.067 109.175Z" fill="#2D2D2D"/>
<path d="M232.782 105.964H234.197L234.358 108.302H234.402C235.443 106.696 237 105.726 238.851 105.726C239.59 105.726 240.204 105.832 240.818 106.132L240.427 107.57C239.732 107.349 239.359 107.243 238.584 107.243C237.089 107.243 235.675 107.993 234.491 110.066V115.836H232.791V105.964H232.782Z" fill="#2D2D2D"/>
<path d="M244.867 110.922C244.867 107.614 247.163 105.726 249.788 105.726C252.413 105.726 254.709 107.614 254.709 110.922C254.709 114.23 252.413 116.083 249.788 116.083C247.163 116.083 244.867 114.195 244.867 110.922ZM252.956 110.922C252.956 108.646 251.684 107.12 249.779 107.12C247.875 107.12 246.602 108.646 246.602 110.922C246.602 113.198 247.875 114.68 249.779 114.68C251.684 114.68 252.956 113.181 252.956 110.922Z" fill="#2D2D2D"/>
<path d="M259.043 112.104V105.973H260.743V111.884C260.743 113.736 261.401 114.627 263.038 114.627C264.186 114.627 265.023 114.098 266.135 112.819V105.973H267.835V115.845H266.42L266.278 114.116H266.198C265.192 115.271 264.026 116.083 262.487 116.083C260.129 116.083 259.043 114.698 259.043 112.104Z" fill="#2D2D2D"/>
<path d="M273.201 105.964H274.598L274.74 107.226H274.803C275.728 106.352 277.036 105.726 278.247 105.726C280.934 105.726 282.367 107.693 282.367 110.763C282.367 114.116 280.24 116.083 277.837 116.083C276.912 116.083 275.764 115.615 274.865 114.804H274.82L274.901 116.674V120.009H273.201V105.973V105.964ZM280.623 110.763C280.623 108.593 279.804 107.146 277.819 107.146C276.938 107.146 275.915 107.596 274.909 108.611V113.525C275.835 114.354 276.876 114.663 277.552 114.663C279.314 114.663 280.623 113.198 280.623 110.763Z" fill="#2D2D2D"/>
<path d="M77.7735 41.0951V29.9616C77.7735 29.4323 77.3374 29 76.8035 29H26.97C26.436 29 26 29.4323 26 29.9616V41.1039C26 41.6333 26.436 42.0655 26.97 42.0655H43.3883C43.9223 42.0655 44.3583 42.4978 44.3583 43.0271V81.7474C44.3583 82.2767 44.7944 82.709 45.3283 82.709H58.374C58.9079 82.709 59.344 82.2767 59.344 81.7474V43.0183C59.344 42.489 59.78 42.0567 60.3139 42.0567H76.8213C77.3552 42.0567 77.7913 41.6244 77.7913 41.0951H77.7735Z" fill="#0E1022"/>
<path d="M99.5667 29H86.521C85.9853 29 85.551 29.4305 85.551 29.9616V63.5032C85.551 64.0343 85.9853 64.4649 86.521 64.4649H99.5667C100.102 64.4649 100.537 64.0343 100.537 63.5032V29.9616C100.537 29.4305 100.102 29 99.5667 29Z" fill="#0E1022"/>
<path d="M99.5667 69.4758H86.521C85.9853 69.4758 85.551 69.9064 85.551 70.4374V81.7297C85.551 82.2608 85.9853 82.6913 86.521 82.6913H99.5667C100.102 82.6913 100.537 82.2608 100.537 81.7297V70.4374C100.537 69.9064 100.102 69.4758 99.5667 69.4758Z" fill="#0E1022"/>
<path d="M125 81.7385V62.8681C125 59.1098 124.341 51.9286 124.341 51.9286L124.51 51.8492L149.658 82.3473C149.845 82.5678 150.121 82.7001 150.406 82.7001H163.389C163.923 82.7001 164.359 82.2679 164.359 81.7385V29.9616C164.359 29.4323 163.923 29 163.389 29H150.344C149.81 29 149.374 29.4323 149.374 29.9616V49.0791C149.374 52.1845 149.952 59.3657 149.952 59.3657H149.792L124.964 29.3529C124.777 29.1323 124.51 29 124.217 29H110.993C110.459 29 110.023 29.4323 110.023 29.9616V81.7385C110.023 82.2679 110.459 82.7001 110.993 82.7001H124.039C124.572 82.7001 125.009 82.2679 125.009 81.7385H125Z" fill="#0E1022"/>
<path d="M226.366 29H211.461C211.132 29 210.829 29.1588 210.651 29.4323L203.114 40.751C202.375 41.9773 199.083 48.1793 199.083 48.1793H198.833C198.833 48.1793 195.79 41.9773 195.042 40.751L187.443 29.4235C187.265 29.1588 186.962 29 186.642 29H171.808C171.042 29 170.58 29.8381 170.998 30.4821L191.367 61.8182C191.465 61.977 191.518 62.1535 191.518 62.3387V81.7474C191.518 82.2767 191.955 82.709 192.488 82.709H205.534C206.068 82.709 206.504 82.2767 206.504 81.7474V62.3476C206.504 62.1623 206.558 61.977 206.664 61.827L227.176 30.4821C227.594 29.8469 227.132 29 226.366 29Z" fill="#0E1022"/>
<path d="M233.218 71.3109C232.213 70.7374 230.593 70.3934 228.84 70.164C227.23 69.9346 225.984 69.7935 225.209 69.4494C224.4 69.0524 224.168 68.479 224.168 67.8791C224.168 66.7322 225.058 65.5324 227.915 65.5324C229.935 65.5324 232.213 66.1058 233.592 66.6793L234.518 63.5033C232.756 62.7005 230.478 62.1624 227.799 62.1624C223.216 62.1624 220.128 64.562 220.128 67.8791C220.128 69.4759 220.76 71.0815 222.46 72.0255C223.581 72.6518 225.058 72.9959 226.927 73.1988C228.6 73.4017 230.015 73.6311 230.673 73.9752C231.341 74.3192 231.679 74.8927 231.679 75.6072C231.679 77.1246 230.406 78.3244 227.47 78.3244C225.138 78.3244 222.709 77.5569 221.214 76.8688L220.351 80.1594C222.282 81.1034 224.765 81.6768 227.79 81.6768C232.978 81.6768 235.63 79.0214 235.63 75.5896C235.63 73.7017 234.847 72.246 233.21 71.3285L233.218 71.3109Z" fill="#0E1022"/>
<path d="M236.911 66.044H243.888V81.3063H247.928V66.044H254.905V62.5063H236.911V66.044Z" fill="#0E1022"/>
<path d="M270.941 73.7104C270.941 76.4276 269.357 78.1126 266.18 78.1126C263.003 78.1126 261.392 76.4276 261.392 73.7104V62.5063H257.352V73.8516C257.352 79.1713 261.33 81.6503 266.171 81.6503C271.012 81.6503 274.963 79.1625 274.963 73.8516V62.5063H270.923V73.7104H270.941Z" fill="#0E1022"/>
<path d="M285.419 62.4976H279.421V81.3063H286.576C293.152 81.3063 296.845 78.1568 296.845 71.8755C296.845 66.591 293.757 62.4976 285.428 62.4976H285.419ZM286.629 77.7686H283.452V66.044H286.051C291.07 66.044 292.77 68.6466 292.77 71.8755C292.77 75.9954 290.803 77.7686 286.629 77.7686Z" fill="#0E1022"/>
<path d="M304.133 62.5063H300.093V81.3151H304.133V62.5063Z" fill="#0E1022"/>
<path d="M317.677 62.1624C311.795 62.1624 307.355 66.3352 307.355 71.7961C307.355 77.7422 311.769 81.6592 317.677 81.6592C323.586 81.6592 328 77.4511 328 71.7961C328 66.1411 323.533 62.1624 317.677 62.1624ZM317.677 78.0245C314.242 78.0245 311.617 75.7925 311.617 71.8226C311.617 68.2231 314.242 65.7882 317.677 65.7882C321.112 65.7882 323.729 68.2231 323.729 71.8226C323.729 75.7925 321.103 78.0245 317.677 78.0245Z" fill="#0E1022"/>
</g>
<defs>
<clipPath id="clip0_20_517">
<rect width="302" height="91" fill="white" transform="translate(26 29)"/>
</clipPath>
</defs>
</svg>
